<svg xmlns="http://www.w3.org/2000/svg" viewBox="0 0 200 200" fill="none" stroke="currentColor" stroke-width="2" stroke-linecap="round" stroke-linejoin="round">
  <!-- Outer ring -->
  <circle cx="100" cy="100" r="92" stroke-width="3"/>
  <circle cx="100" cy="100" r="86"/>
  <!-- District number -->
  <text x="100" y="56" text-anchor="middle" font-family="'Big Shoulders Display', sans-serif" font-weight="900" font-size="22" fill="currentColor" stroke="none" letter-spacing="0">DISTRICT</text>
  <!-- Crossed pickaxes for mining -->
  <g stroke-width="3" fill="currentColor" fill-opacity="0.1">
    <!-- Pickaxe 1 -->
    <path d="M60 80 L 140 160" stroke-width="4"/>
    <path d="M52 76 C 50 70 56 64 64 64 C 78 64 92 70 100 80 L 96 88 C 84 78 70 74 60 78 Z" fill-opacity="0.9"/>
    <!-- Pickaxe 2 -->
    <path d="M140 80 L 60 160" stroke-width="4"/>
    <path d="M148 76 C 150 70 144 64 136 64 C 122 64 108 70 100 80 L 104 88 C 116 78 130 74 140 78 Z" fill-opacity="0.9"/>
  </g>
  <!-- Number 12 below -->
  <text x="100" y="178" text-anchor="middle" font-family="'Big Shoulders Display', sans-serif" font-weight="900" font-size="32" fill="currentColor" stroke="none" letter-spacing="0">12</text>
</svg>
